# xmcd
#
# Track frame offsets: 
#        150
#        17114
#        34111
#        54632
#        71862
#        92044
#
# Disc length: 1420 seconds
#
# Revision: 0
# Processed by: cddbd v1.5.1PL0 Copyright (c) Steve Scherf et al.
# Submitted via: ExactAudioCopy v0.95a5
#
DISCID=4e058a06
DTITLE=Daniel Merriweather - She's Got Me
DYEAR=2004
DGENRE=R&B
TTITLE0=She's Got Me
TTITLE1=She's Got Me (P-Money Remix feat Scribe)
TTITLE2=She's Got Me (Calculators Remix)
TTITLE3=City Rules (feat Siagon)
TTITLE4=City Rules (Accapella feat Saigon)
TTITLE5=She's Got Me (Accapella)
EXTD=
EXTT0=
EXTT1=
EXTT2=
EXTT3=
EXTT4=
EXTT5=
PLAYORDER=
